<svg width="113" height="113" viewBox="0 0 113 113" fill="none" xmlns="http://www.w3.org/2000/svg">
<g filter="url(#filter0_d_248_588)">
<ellipse cx="56.137" cy="56" rx="44.137" ry="44" fill="#FAF7EF"/>
<path d="M98.2739 56C98.2739 79.1901 79.4144 98 56.137 98C32.8595 98 14 79.1901 14 56C14 32.8099 32.8595 14 56.137 14C79.4144 14 98.2739 32.8099 98.2739 56Z" stroke="#B2EAE2" stroke-width="4"/>
</g>
<g filter="url(#filter1_d_248_588)">
<mask id="path-3-inside-1_248_588" fill="white">
<path d="M56.1367 13.9006C56.1367 12.7752 57.0496 11.8579 58.1739 11.9101C63.9462 12.1785 69.6164 13.5852 74.8578 16.0572C80.1033 18.5311 84.8037 22.0173 88.6939 26.3098C89.4466 27.1404 89.3231 28.4228 88.461 29.1393C87.5951 29.8588 86.3132 29.7342 85.553 28.9038C82.0484 25.0753 77.8299 21.9626 73.129 19.7456C68.4285 17.5287 63.3481 16.2557 58.1737 15.9906C57.0497 15.933 56.1367 15.0261 56.1367 13.9006Z"/>
</mask>
<path d="M56.1367 13.9006C56.1367 12.7752 57.0496 11.8579 58.1739 11.9101C63.9462 12.1785 69.6164 13.5852 74.8578 16.0572C80.1033 18.5311 84.8037 22.0173 88.6939 26.3098C89.4466 27.1404 89.3231 28.4228 88.461 29.1393C87.5951 29.8588 86.3132 29.7342 85.553 28.9038C82.0484 25.0753 77.8299 21.9626 73.129 19.7456C68.4285 17.5287 63.3481 16.2557 58.1737 15.9906C57.0497 15.933 56.1367 15.0261 56.1367 13.9006Z" fill="#FAF7EF"/>
<path d="M56.1367 13.9006C56.1367 12.7752 57.0496 11.8579 58.1739 11.9101C63.9462 12.1785 69.6164 13.5852 74.8578 16.0572C80.1033 18.5311 84.8037 22.0173 88.6939 26.3098C89.4466 27.1404 89.3231 28.4228 88.461 29.1393C87.5951 29.8588 86.3132 29.7342 85.553 28.9038C82.0484 25.0753 77.8299 21.9626 73.129 19.7456C68.4285 17.5287 63.3481 16.2557 58.1737 15.9906C57.0497 15.933 56.1367 15.0261 56.1367 13.9006Z" stroke="#07C0BA" stroke-width="8" mask="url(#path-3-inside-1_248_588)"/>
</g>
<path d="M33.1698 61V59.784C33.8951 59.208 34.5885 58.6267 35.2498 58.04C35.9111 57.4533 36.4978 56.8773 37.0098 56.312C37.5325 55.736 37.9431 55.176 38.2418 54.632C38.5405 54.0773 38.6898 53.544 38.6898 53.032C38.6898 52.6907 38.6311 52.3707 38.5138 52.072C38.3965 51.7627 38.2045 51.5173 37.9378 51.336C37.6711 51.144 37.3138 51.048 36.8658 51.048C36.1938 51.048 35.6871 51.2613 35.3458 51.688C35.0151 52.1147 34.8551 52.6267 34.8658 53.224H33.2178C33.2285 52.4347 33.3938 51.7733 33.7138 51.24C34.0445 50.7067 34.4818 50.3013 35.0258 50.024C35.5805 49.7467 36.2045 49.608 36.8978 49.608C37.9538 49.608 38.7965 49.9067 39.4258 50.504C40.0658 51.0907 40.3858 51.912 40.3858 52.968C40.3858 53.5973 40.2311 54.2213 39.9218 54.84C39.6231 55.4587 39.2285 56.056 38.7378 56.632C38.2578 57.1973 37.7405 57.7307 37.1858 58.232C36.6311 58.7333 36.1031 59.1867 35.6018 59.592H40.7218V61H33.1698ZM50.2293 61.192C49.472 61.192 48.7893 61.0213 48.1813 60.68C47.584 60.328 47.1093 59.8427 46.7573 59.224C46.4053 58.5947 46.2293 57.864 46.2293 57.032C46.2293 56.2 46.4053 55.4747 46.7573 54.856C47.12 54.2267 47.6053 53.7413 48.2133 53.4C48.8213 53.048 49.4986 52.872 50.2453 52.872C51.0026 52.872 51.68 53.048 52.2773 53.4C52.8853 53.7413 53.3653 54.2267 53.7173 54.856C54.08 55.4747 54.2613 56.2 54.2613 57.032C54.2613 57.864 54.08 58.5947 53.7173 59.224C53.3653 59.8427 52.8853 60.328 52.2773 60.68C51.6693 61.0213 50.9866 61.192 50.2293 61.192ZM50.2293 59.736C50.6346 59.736 51.008 59.6347 51.3493 59.432C51.7013 59.2293 51.984 58.9307 52.1973 58.536C52.4106 58.1307 52.5173 57.6293 52.5173 57.032C52.5173 56.4347 52.4106 55.9387 52.1973 55.544C51.9946 55.1387 51.7173 54.8347 51.3653 54.632C51.024 54.4293 50.6506 54.328 50.2453 54.328C49.84 54.328 49.4613 54.4293 49.1093 54.632C48.768 54.8347 48.4906 55.1387 48.2773 55.544C48.064 55.9387 47.9573 56.4347 47.9573 57.032C47.9573 57.6293 48.064 58.1307 48.2773 58.536C48.4906 58.9307 48.768 59.2293 49.1093 59.432C49.4506 59.6347 49.824 59.736 50.2293 59.736ZM56.4954 61V54.488H55.3594V53.064H56.4954V51.912C56.4954 51.048 56.7088 50.4293 57.1354 50.056C57.5728 49.672 58.1861 49.48 58.9754 49.48H59.8074V50.92H59.2314C58.8581 50.92 58.5914 51 58.4314 51.16C58.2714 51.3093 58.1914 51.5653 58.1914 51.928V53.064H60.0154V54.488H58.1914V61H56.4954ZM66.8739 61V51.72L65.0659 52.136V50.888L67.5459 49.8H68.6339V61H66.8739ZM76.0134 61V58.76H70.3974V57.416L75.7414 49.8H77.6934V57.288H79.2614V58.76H77.6934V61H76.0134ZM72.2374 57.288H76.1094V51.672L72.2374 57.288Z" fill="#2A2A37"/>
<defs>
<filter id="filter0_d_248_588" x="0" y="1" width="112.274" height="112" filterUnits="userSpaceOnUse" color-interpolation-filters="sRGB">
<feFlood flood-opacity="0" result="BackgroundImageFix"/>
<feColorMatrix in="SourceAlpha" type="matrix" values="0 0 0 0 0 0 0 0 0 0 0 0 0 0 0 0 0 0 127 0" result="hardAlpha"/>
<feOffset dy="1"/>
<feGaussianBlur stdDeviation="6"/>
<feComposite in2="hardAlpha" operator="out"/>
<feColorMatrix type="matrix" values="0 0 0 0 0.164706 0 0 0 0 0.164706 0 0 0 0 0.215686 0 0 0 0.16 0"/>
<feBlend mode="normal" in2="BackgroundImageFix" result="effect1_dropShadow_248_588"/>
<feBlend mode="normal" in="SourceGraphic" in2="effect1_dropShadow_248_588" result="shape"/>
</filter>
<filter id="filter1_d_248_588" x="44.1367" y="0.908203" width="57.0537" height="41.7021" filterUnits="userSpaceOnUse" color-interpolation-filters="sRGB">
<feFlood flood-opacity="0" result="BackgroundImageFix"/>
<feColorMatrix in="SourceAlpha" type="matrix" values="0 0 0 0 0 0 0 0 0 0 0 0 0 0 0 0 0 0 127 0" result="hardAlpha"/>
<feOffset dy="1"/>
<feGaussianBlur stdDeviation="6"/>
<feComposite in2="hardAlpha" operator="out"/>
<feColorMatrix type="matrix" values="0 0 0 0 0.164706 0 0 0 0 0.164706 0 0 0 0 0.215686 0 0 0 0.16 0"/>
<feBlend mode="normal" in2="BackgroundImageFix" result="effect1_dropShadow_248_588"/>
<feBlend mode="normal" in="SourceGraphic" in2="effect1_dropShadow_248_588" result="shape"/>
</filter>
</defs>
</svg>
