<svg width="25" height="25" viewBox="0 0 25 25" fill="none" xmlns="http://www.w3.org/2000/svg">
<path d="M3.75977 12.0406C3.75977 10.1192 3.75977 9.15849 4.1665 8.32686C4.57324 7.49522 5.33158 6.90541 6.84824 5.72578L7.84824 4.948C10.2076 3.11292 11.3873 2.19538 12.7598 2.19538C14.1322 2.19538 15.3119 3.11292 17.6713 4.948L18.6713 5.72578C20.188 6.90541 20.9463 7.49522 21.353 8.32686C21.7598 9.15849 21.7598 10.1192 21.7598 12.0406V14.1279C21.7598 17.8992 21.7598 19.7848 20.5882 20.9564C19.4166 22.1279 17.531 22.1279 13.7598 22.1279H11.7598C7.98853 22.1279 6.10291 22.1279 4.93134 20.9564C3.75977 19.7848 3.75977 17.8992 3.75977 14.1279V12.0406Z" fill="black" stroke="black" stroke-width="1.5" stroke-miterlimit="10"/>
<path d="M9.75977 17.1279C9.75977 16.196 9.75977 15.7301 9.91201 15.3626C10.115 14.8725 10.5043 14.4832 10.9944 14.2802C11.3619 14.1279 11.8279 14.1279 12.7598 14.1279C13.6916 14.1279 14.1576 14.1279 14.5251 14.2802C15.0152 14.4832 15.4045 14.8725 15.6075 15.3626C15.7598 15.7301 15.7598 16.196 15.7598 17.1279V22.1279H9.75977V17.1279Z" fill="white"/>
</svg>
