<svg width="99" height="99" viewBox="0 0 99 99" fill="none" xmlns="http://www.w3.org/2000/svg">
<rect x="93" y="88" width="87" height="87" rx="25.1039" transform="rotate(-180 93 88)" fill="url(#paint0_linear_276_18)"/>
<g filter="url(#filter0_d_276_18)">
<path d="M49.4998 18.4001C35.0852 18.4001 23.3999 30.0855 23.3999 44.5001C23.3999 58.9147 35.0852 70.6001 49.4999 70.6001C63.9145 70.6001 75.5999 58.9147 75.5999 44.5001C75.5998 30.0855 63.9145 18.4001 49.4998 18.4001Z" fill="#FAF7EF"/>
</g>
<g style="mix-blend-mode:color" filter="url(#filter1_d_276_18)">
<path d="M49.4998 18.4001C35.0852 18.4001 23.3999 30.0855 23.3999 44.5001C23.3999 58.9147 35.0852 70.6001 49.4999 70.6001C63.9145 70.6001 75.5999 58.9147 75.5999 44.5001C75.5998 30.0855 63.9145 18.4001 49.4998 18.4001Z" fill="url(#paint1_radial_276_18)"/>
</g>
<path d="M52.9443 45.4304C52.4904 45.6297 51.9514 45.7878 51.3581 45.8957C50.7649 46.0035 50.129 46.059 49.4868 46.059C48.8447 46.059 48.2089 46.0035 47.6157 45.8957C47.0224 45.7878 46.4834 45.6297 46.0295 45.4304" fill="white"/>
<path d="M52.9443 45.4304C52.4904 45.6297 51.9514 45.7878 51.3581 45.8957C50.7649 46.0035 50.129 46.059 49.4868 46.059C48.8447 46.059 48.2089 46.0035 47.6157 45.8957C47.0224 45.7878 46.4834 45.6297 46.0295 45.4304" stroke="#444444" stroke-width="1.60546" stroke-linecap="round" stroke-linejoin="round"/>
<path d="M52.9443 45.4304C52.4904 45.6297 51.9514 45.7878 51.3581 45.8957C50.7649 46.0035 50.129 46.059 49.4868 46.059C48.8447 46.059 48.2089 46.0035 47.6157 45.8957C47.0224 45.7878 46.4834 45.6297 46.0295 45.4304" stroke="black" stroke-opacity="0.2" stroke-width="1.60546" stroke-linecap="round" stroke-linejoin="round"/>
<path d="M52.9443 45.4304C52.4904 45.6297 51.9514 45.7878 51.3581 45.8957C50.7649 46.0035 50.129 46.059 49.4868 46.059C48.8447 46.059 48.2089 46.0035 47.6157 45.8957C47.0224 45.7878 46.4834 45.6297 46.0295 45.4304" stroke="black" stroke-opacity="0.2" stroke-width="1.60546" stroke-linecap="round" stroke-linejoin="round"/>
<path d="M52.9443 45.4304C52.4904 45.6297 51.9514 45.7878 51.3581 45.8957C50.7649 46.0035 50.129 46.059 49.4868 46.059C48.8447 46.059 48.2089 46.0035 47.6157 45.8957C47.0224 45.7878 46.4834 45.6297 46.0295 45.4304" stroke="black" stroke-opacity="0.2" stroke-width="1.60546" stroke-linecap="round" stroke-linejoin="round"/>
<path d="M52.9443 45.4304C52.4904 45.6297 51.9514 45.7878 51.3581 45.8957C50.7649 46.0035 50.129 46.059 49.4868 46.059C48.8447 46.059 48.2089 46.0035 47.6157 45.8957C47.0224 45.7878 46.4834 45.6297 46.0295 45.4304" stroke="black" stroke-opacity="0.2" stroke-width="1.60546" stroke-linecap="round" stroke-linejoin="round"/>
<path d="M43.27 38.3835C44.1136 38.3835 44.7975 37.6996 44.7975 36.856C44.7975 36.0123 44.1136 35.3284 43.27 35.3284C42.4263 35.3284 41.7424 36.0123 41.7424 36.856C41.7424 37.6996 42.4263 38.3835 43.27 38.3835Z" fill="#444444"/>
<path d="M43.27 38.3835C44.1136 38.3835 44.7975 37.6996 44.7975 36.856C44.7975 36.0123 44.1136 35.3284 43.27 35.3284C42.4263 35.3284 41.7424 36.0123 41.7424 36.856C41.7424 37.6996 42.4263 38.3835 43.27 38.3835Z" fill="black" fill-opacity="0.2"/>
<path d="M43.27 38.3835C44.1136 38.3835 44.7975 37.6996 44.7975 36.856C44.7975 36.0123 44.1136 35.3284 43.27 35.3284C42.4263 35.3284 41.7424 36.0123 41.7424 36.856C41.7424 37.6996 42.4263 38.3835 43.27 38.3835Z" fill="black" fill-opacity="0.2"/>
<path d="M43.27 38.3835C44.1136 38.3835 44.7975 37.6996 44.7975 36.856C44.7975 36.0123 44.1136 35.3284 43.27 35.3284C42.4263 35.3284 41.7424 36.0123 41.7424 36.856C41.7424 37.6996 42.4263 38.3835 43.27 38.3835Z" fill="black" fill-opacity="0.2"/>
<path d="M43.27 38.3835C44.1136 38.3835 44.7975 37.6996 44.7975 36.856C44.7975 36.0123 44.1136 35.3284 43.27 35.3284C42.4263 35.3284 41.7424 36.0123 41.7424 36.856C41.7424 37.6996 42.4263 38.3835 43.27 38.3835Z" fill="black" fill-opacity="0.2"/>
<path d="M43.27 38.3835C44.1136 38.3835 44.7975 37.6996 44.7975 36.856C44.7975 36.0123 44.1136 35.3284 43.27 35.3284C42.4263 35.3284 41.7424 36.0123 41.7424 36.856C41.7424 37.6996 42.4263 38.3835 43.27 38.3835Z" stroke="#444444" stroke-width="1.60546" stroke-linecap="round" stroke-linejoin="round"/>
<path d="M43.27 38.3835C44.1136 38.3835 44.7975 37.6996 44.7975 36.856C44.7975 36.0123 44.1136 35.3284 43.27 35.3284C42.4263 35.3284 41.7424 36.0123 41.7424 36.856C41.7424 37.6996 42.4263 38.3835 43.27 38.3835Z" stroke="black" stroke-opacity="0.2" stroke-width="1.60546" stroke-linecap="round" stroke-linejoin="round"/>
<path d="M43.27 38.3835C44.1136 38.3835 44.7975 37.6996 44.7975 36.856C44.7975 36.0123 44.1136 35.3284 43.27 35.3284C42.4263 35.3284 41.7424 36.0123 41.7424 36.856C41.7424 37.6996 42.4263 38.3835 43.27 38.3835Z" stroke="black" stroke-opacity="0.2" stroke-width="1.60546" stroke-linecap="round" stroke-linejoin="round"/>
<path d="M43.27 38.3835C44.1136 38.3835 44.7975 37.6996 44.7975 36.856C44.7975 36.0123 44.1136 35.3284 43.27 35.3284C42.4263 35.3284 41.7424 36.0123 41.7424 36.856C41.7424 37.6996 42.4263 38.3835 43.27 38.3835Z" stroke="black" stroke-opacity="0.2" stroke-width="1.60546" stroke-linecap="round" stroke-linejoin="round"/>
<path d="M43.27 38.3835C44.1136 38.3835 44.7975 37.6996 44.7975 36.856C44.7975 36.0123 44.1136 35.3284 43.27 35.3284C42.4263 35.3284 41.7424 36.0123 41.7424 36.856C41.7424 37.6996 42.4263 38.3835 43.27 38.3835Z" stroke="black" stroke-opacity="0.2" stroke-width="1.60546" stroke-linecap="round" stroke-linejoin="round"/>
<path d="M54.8744 38.3835C55.7181 38.3835 56.402 37.6996 56.402 36.856C56.402 36.0123 55.7181 35.3284 54.8744 35.3284C54.0308 35.3284 53.3469 36.0123 53.3469 36.856C53.3469 37.6996 54.0308 38.3835 54.8744 38.3835Z" fill="#444444"/>
<path d="M54.8744 38.3835C55.7181 38.3835 56.402 37.6996 56.402 36.856C56.402 36.0123 55.7181 35.3284 54.8744 35.3284C54.0308 35.3284 53.3469 36.0123 53.3469 36.856C53.3469 37.6996 54.0308 38.3835 54.8744 38.3835Z" fill="black" fill-opacity="0.2"/>
<path d="M54.8744 38.3835C55.7181 38.3835 56.402 37.6996 56.402 36.856C56.402 36.0123 55.7181 35.3284 54.8744 35.3284C54.0308 35.3284 53.3469 36.0123 53.3469 36.856C53.3469 37.6996 54.0308 38.3835 54.8744 38.3835Z" fill="black" fill-opacity="0.2"/>
<path d="M54.8744 38.3835C55.7181 38.3835 56.402 37.6996 56.402 36.856C56.402 36.0123 55.7181 35.3284 54.8744 35.3284C54.0308 35.3284 53.3469 36.0123 53.3469 36.856C53.3469 37.6996 54.0308 38.3835 54.8744 38.3835Z" fill="black" fill-opacity="0.2"/>
<path d="M54.8744 38.3835C55.7181 38.3835 56.402 37.6996 56.402 36.856C56.402 36.0123 55.7181 35.3284 54.8744 35.3284C54.0308 35.3284 53.3469 36.0123 53.3469 36.856C53.3469 37.6996 54.0308 38.3835 54.8744 38.3835Z" fill="black" fill-opacity="0.2"/>
<path d="M54.8744 38.3835C55.7181 38.3835 56.402 37.6996 56.402 36.856C56.402 36.0123 55.7181 35.3284 54.8744 35.3284C54.0308 35.3284 53.3469 36.0123 53.3469 36.856C53.3469 37.6996 54.0308 38.3835 54.8744 38.3835Z" stroke="#444444" stroke-width="1.60546" stroke-linecap="round" stroke-linejoin="round"/>
<path d="M54.8744 38.3835C55.7181 38.3835 56.402 37.6996 56.402 36.856C56.402 36.0123 55.7181 35.3284 54.8744 35.3284C54.0308 35.3284 53.3469 36.0123 53.3469 36.856C53.3469 37.6996 54.0308 38.3835 54.8744 38.3835Z" stroke="black" stroke-opacity="0.2" stroke-width="1.60546" stroke-linecap="round" stroke-linejoin="round"/>
<path d="M54.8744 38.3835C55.7181 38.3835 56.402 37.6996 56.402 36.856C56.402 36.0123 55.7181 35.3284 54.8744 35.3284C54.0308 35.3284 53.3469 36.0123 53.3469 36.856C53.3469 37.6996 54.0308 38.3835 54.8744 38.3835Z" stroke="black" stroke-opacity="0.2" stroke-width="1.60546" stroke-linecap="round" stroke-linejoin="round"/>
<path d="M54.8744 38.3835C55.7181 38.3835 56.402 37.6996 56.402 36.856C56.402 36.0123 55.7181 35.3284 54.8744 35.3284C54.0308 35.3284 53.3469 36.0123 53.3469 36.856C53.3469 37.6996 54.0308 38.3835 54.8744 38.3835Z" stroke="black" stroke-opacity="0.2" stroke-width="1.60546" stroke-linecap="round" stroke-linejoin="round"/>
<path d="M54.8744 38.3835C55.7181 38.3835 56.402 37.6996 56.402 36.856C56.402 36.0123 55.7181 35.3284 54.8744 35.3284C54.0308 35.3284 53.3469 36.0123 53.3469 36.856C53.3469 37.6996 54.0308 38.3835 54.8744 38.3835Z" stroke="black" stroke-opacity="0.2" stroke-width="1.60546" stroke-linecap="round" stroke-linejoin="round"/>
<path d="M33.1923 49.5096L47.1839 60.4367C48.6203 61.6518 49.5298 63.3764 49.7212 65.2481C49.9127 67.1198 49.3712 68.9928 48.2106 70.4736C47.05 71.9544 45.3605 72.9276 43.4973 73.1889C41.6341 73.4501 39.7422 72.979 38.2191 71.8745L24.2813 60.9474C23.4897 60.3734 22.8221 59.6457 22.3183 58.8078C21.8144 57.9698 21.4848 57.0389 21.349 56.0706C21.2132 55.1023 21.2741 54.1166 21.5281 53.1724C21.782 52.2282 22.2238 51.3449 22.8269 50.5754C23.4301 49.8058 24.1823 49.1658 25.0384 48.6937C25.8946 48.2215 26.8372 47.9269 27.8099 47.8274C28.7826 47.7279 29.7653 47.8256 30.6994 48.1146C31.6334 48.4036 32.4996 48.8781 33.2461 49.5096L33.1923 49.5096Z" fill="#D9D9D9"/>
<g filter="url(#filter2_f_276_18)">
<path d="M33.1923 49.5096L47.1839 60.4367C48.6203 61.6518 49.5298 63.3764 49.7212 65.2481C49.9127 67.1198 49.3712 68.9928 48.2106 70.4736C47.05 71.9544 45.3605 72.9276 43.4973 73.1889C41.6341 73.4501 39.7422 72.979 38.2191 71.8745L24.2813 60.9474C23.4897 60.3734 22.8221 59.6457 22.3183 58.8078C21.8144 57.9698 21.4848 57.0389 21.349 56.0706C21.2132 55.1023 21.2741 54.1166 21.5281 53.1724C21.782 52.2282 22.2238 51.3449 22.8269 50.5754C23.4301 49.8058 24.1823 49.1658 25.0384 48.6937C25.8946 48.2215 26.8372 47.9269 27.8099 47.8274C28.7826 47.7279 29.7653 47.8256 30.6994 48.1146C31.6334 48.4036 32.4996 48.8781 33.2461 49.5096L33.1923 49.5096Z" fill="white"/>
</g>
<path d="M33.1921 49.5095L40.0199 54.8857L31.0551 66.2966L24.2273 60.9204C23.4358 60.3465 22.7681 59.6187 22.2643 58.7808C21.7605 57.9428 21.4308 57.0119 21.2951 56.0436C21.1593 55.0753 21.2202 54.0896 21.4741 53.1454C21.7281 52.2012 22.1698 51.3179 22.773 50.5484C23.3761 49.7789 24.1283 49.1389 24.9845 48.6667C25.8407 48.1945 26.7833 47.8999 27.756 47.8004C28.7286 47.7009 29.7114 47.7986 30.6454 48.0876C31.5795 48.3767 32.4456 48.8511 33.1921 49.4826L33.1921 49.5095Z" fill="#07C0BA"/>
<path d="M36.0688 54.133C36.0443 54.2421 35.9936 54.3436 35.9209 54.4287C35.8594 54.5067 35.783 54.5717 35.6962 54.62C35.6094 54.6684 35.5139 54.699 35.4152 54.7103C35.3165 54.7215 35.2166 54.7131 35.1211 54.6856C35.0257 54.658 34.9366 54.6118 34.8591 54.5496L31.4856 51.8615C31.0628 51.466 30.5533 51.1748 29.9978 51.0115C29.4423 50.8481 28.8563 50.817 28.2867 50.9207C28.0982 50.9504 27.9053 50.9087 27.7459 50.8036C27.5866 50.6986 27.4721 50.5379 27.425 50.3529C27.378 50.1679 27.4016 49.9721 27.4914 49.8036C27.5812 49.6352 27.7306 49.5063 27.9104 49.4423C28.7011 49.2765 29.5197 49.2996 30.2997 49.5098C31.0797 49.72 31.7992 50.1113 32.3995 50.6519L35.8 53.34C35.9169 53.4318 36.0045 53.5557 36.0523 53.6965C36.1 53.8373 36.1057 53.989 36.0688 54.133Z" fill="#FAF7EF"/>
<defs>
<filter id="filter0_d_276_18" x="0.505167" y="0.0842972" width="97.9894" height="97.9895" filterUnits="userSpaceOnUse" color-interpolation-filters="sRGB">
<feFlood flood-opacity="0" result="BackgroundImageFix"/>
<feColorMatrix in="SourceAlpha" type="matrix" values="0 0 0 0 0 0 0 0 0 0 0 0 0 0 0 0 0 0 127 0" result="hardAlpha"/>
<feOffset dy="4.57895"/>
<feGaussianBlur stdDeviation="11.4474"/>
<feComposite in2="hardAlpha" operator="out"/>
<feColorMatrix type="matrix" values="0 0 0 0 0.407843 0 0 0 0 0.847059 0 0 0 0 0.839216 0 0 0 1 0"/>
<feBlend mode="normal" in2="BackgroundImageFix" result="effect1_dropShadow_276_18"/>
<feBlend mode="normal" in="SourceGraphic" in2="effect1_dropShadow_276_18" result="shape"/>
</filter>
<filter id="filter1_d_276_18" x="0.505167" y="0.0842972" width="97.9894" height="97.9895" filterUnits="userSpaceOnUse" color-interpolation-filters="sRGB">
<feFlood flood-opacity="0" result="BackgroundImageFix"/>
<feColorMatrix in="SourceAlpha" type="matrix" values="0 0 0 0 0 0 0 0 0 0 0 0 0 0 0 0 0 0 127 0" result="hardAlpha"/>
<feOffset dy="4.57895"/>
<feGaussianBlur stdDeviation="11.4474"/>
<feComposite in2="hardAlpha" operator="out"/>
<feColorMatrix type="matrix" values="0 0 0 0 0.407843 0 0 0 0 0.847059 0 0 0 0 0.839216 0 0 0 1 0"/>
<feBlend mode="normal" in2="BackgroundImageFix" result="effect1_dropShadow_276_18"/>
<feBlend mode="normal" in="SourceGraphic" in2="effect1_dropShadow_276_18" result="shape"/>
</filter>
<filter id="filter2_f_276_18" x="15.5274" y="42.0385" width="39.9827" height="36.972" filterUnits="userSpaceOnUse" color-interpolation-filters="sRGB">
<feFlood flood-opacity="0" result="BackgroundImageFix"/>
<feBlend mode="normal" in="SourceGraphic" in2="BackgroundImageFix" result="shape"/>
<feGaussianBlur stdDeviation="2.87556" result="effect1_foregroundBlur_276_18"/>
</filter>
<linearGradient id="paint0_linear_276_18" x1="99.09" y1="92.785" x2="180" y2="175" gradientUnits="userSpaceOnUse">
<stop stop-color="#00DBBB"/>
<stop offset="0.655" stop-color="#A4EDDD"/>
<stop offset="0.9999" stop-color="#FAF7EF"/>
<stop offset="1" stop-color="#68D8D6"/>
</linearGradient>
<radialGradient id="paint1_radial_276_18" cx="0" cy="0" r="1" gradientUnits="userSpaceOnUse" gradientTransform="translate(23.3999 57.5501) rotate(-160.989) scale(60.8347)">
<stop stop-color="white"/>
<stop offset="1" stop-color="#D1FAF2"/>
</radialGradient>
</defs>
</svg>
